PathFileType	4	(X/Y/Z)	Walk9.trc
DataRate	CameraRate	NumFrames	NumMarkers	Units	OrigDataRate	OrigDataStartFrame	OrigNumFrames
200.000000	200.000000	9	59	mm	200.000000	274	523
Frame#	Times		RFHD		RACR1		RUA1		RElbowM		RFA1		RWRU		LACR1		LUA1		LFA1		LWRU		RTH1		LTH2		LFHD		LTB2		RBack		RTH2		LTH4		LASI		CLAV		RTH3		RTB3		LCAR		RTB2		RTB1		LWRR		LTH3		RCAR		C7		RTB4		RElbow		RASI		T10		LBHD		LLFC		RWRR		RBHD		STRN		RPSI		LTB4		LToe		LTB1		LTH1		LElbowM		LElbow		LMMAL		RTH4		LPSI		LCAL		RMT5		LTB3		LMT5		LMT1		RLFC		LLMAL		RMT1		RToe		RCAL		RLMAL		RMMAL
			X1	Y1	Z1	X2	Y2	Z2	X3	Y3	Z3	X4	Y4	Z4	X5	Y5	Z5	X6	Y6	Z6	X7	Y7	Z7	X8	Y8	Z8	X9	Y9	Z9	X10	Y10	Z10	X11	Y11	Z11	X12	Y12	Z12	X13	Y13	Z13	X14	Y14	Z14	X15	Y15	Z15	X16	Y16	Z16	X17	Y17	Z17	X18	Y18	Z18	X19	Y19	Z19	X20	Y20	Z20	X21	Y21	Z21	X22	Y22	Z22	X23	Y23	Z23	X24	Y24	Z24	X25	Y25	Z25	X26	Y26	Z26	X27	Y27	Z27	X28	Y28	Z28	X29	Y29	Z29	X30	Y30	Z30	X31	Y31	Z31	X32	Y32	Z32	X33	Y33	Z33	X34	Y34	Z34	X35	Y35	Z35	X36	Y36	Z36	X37	Y37	Z37	X38	Y38	Z38	X39	Y39	Z39	X40	Y40	Z40	X41	Y41	Z41	X42	Y42	Z42	X43	Y43	Z43	X44	Y44	Z44	X45	Y45	Z45	X46	Y46	Z46	X47	Y47	Z47	X48	Y48	Z48	X49	Y49	Z49	X50	Y50	Z50	X51	Y51	Z51	X52	Y52	Z52	X53	Y53	Z53	X54	Y54	Z54	X55	Y55	Z55	X56	Y56	Z56	X57	Y57	Z57	X58	Y58	Z58	X59	Y59	Z59

274	1.37	-436.46	1404.4	28.656	-535.66	1206.3	145.99	-521.35	1069	231.65	-580.57	905.65	208.25	-443.67	843.28	269.93	-435.05	743.33	290.14	-551.38	1197.3	-218.68	-562.82	1037.6	-295.21	-578.41	836.32	-364.03	-617.17	736.06	-398.39	-576.67	626.46	179.37	-464.51	577.64	-192.32	-428.57	1415.6	-66.912	-393.69	225.67	-140.49	-652.26	1136.8	89.964	-544.21	537.71	137.08	-511.99	554.05	-220.68	-493.68	801	-190.11	-463.54	1169.5	-33.002	-620.77	467.36	126.85	-733.29	122.39	21.458	-592.43	683.35	-418.85	-731.32	207.79	85.106	-655.44	273.64	49.704	-564.62	719.75	-366.57	-492.04	474.17	-189.17	-374.58	706.61	274.54	-605.66	1256.2	-31.29	-696.8	198.08	35.422	-526.82	946.29	274.25	-484.95	818.68	141.99	-693.69	1057.5	-15.126	-558.95	1344	-95.594	-442.6	397.97	-150.85	-406.24	755.74	225.22	-568.5	1337.4	37.108	-414.23	1063.2	-26.365	-740.39	842.39	26.437	-371.99	231.73	-82.793	-205.18	100.31	-90.438	-390.44	317.79	-85.972	-533.87	635.38	-240.63	-627.63	899.35	-241.98	-608.98	928.84	-310.48	-353.3	85.942	-36.177	-600.28	548.22	156.73	-745.92	833.92	-77.323	-404.96	34.255	-64.835	-730.07	19.069	73.906	-348.1	151.85	-81.303	-281.11	50.641	-135.46	-244.18	83.636	-61.1	-670.13	387.69	102.78	-373.01	63.249	-112.83	-700.04	28.594	-16.101	-644.25	28.139	23.178	-862.28	69.625	4.5132	-784.11	87.161	-30.754	-801.55	77.808	52.507
275	1.375	-431.22	1403.8	27.993	-530.71	1205.8	145.2	-516.34	1068.5	231	-575.69	905.24	207.8	-438.81	842.95	269.55	-430.22	743.02	289.9	-545.69	1196.3	-219.57	-556.77	1036.5	-295.91	-572.3	835.26	-364.63	-611.33	735.1	-399.01	-570.92	626.14	179.45	-458.51	577.07	-192.17	-423.23	1415.1	-67.574	-388.37	224.73	-139.76	-647.07	1136.1	88.904	-538.81	537.18	137.27	-506.03	553.39	-220.35	-487.51	799.88	-190.13	-458.04	1169	-33.65	-615.62	467.1	127.1	-731.81	123.09	21.655	-586.87	682.24	-419.51	-728.72	208.38	85.399	-652.01	273.27	50.045	-558.74	718.63	-367.31	-485.9	473.59	-188.71	-369.72	706.3	274.42	-600.37	1255.5	-32.349	-694.34	198.26	35.683	-521.94	945.96	273.75	-479.44	818.65	142.31	-688.07	1056.7	-16.1	-553.55	1343.4	-96.395	-436.61	397.45	-150.4	-401.28	755.38	224.99	-563.23	1336.8	36.283	-408.62	1062.7	-26.629	-734.56	841.83	25.928	-366.82	230.7	-81.985	-200.35	96.864	-89.127	-384.88	316.8	-85.271	-528.07	634.67	-240.36	-621.2	898.17	-242.49	-602.67	927.67	-310.97	-349.15	84.803	-35.355	-594.8	547.97	157	-739.72	833.24	-77.768	-401.17	34.174	-64.305	-729.98	19.294	73.897	-343.3	150.77	-80.367	-277.14	48.698	-134.49	-240.02	81.141	-59.888	-665.45	387.58	103.15	-368.79	62.507	-112.1	-699.9	28.709	-16.06	-644.24	28.101	23.15	-861.44	72.116	4.6957	-783.09	88.585	-30.576	-800.64	79.337	52.706
276	1.38	-425.97	1403.4	27.313	-525.74	1205.3	144.38	-511.37	1068.1	230.32	-570.87	904.87	207.31	-434.05	842.62	269.16	-425.51	742.7	289.66	-539.98	1195.4	-220.51	-550.7	1035.4	-296.63	-566.07	834.16	-365.21	-605.33	734.07	-399.59	-565.07	625.82	179.53	-452.39	576.65	-192.03	-417.89	1414.7	-68.253	-383.27	223.79	-139.05	-641.88	1135.4	87.813	-533.23	536.68	137.45	-499.95	552.86	-219.98	-481.31	798.81	-190.17	-452.52	1168.5	-34.334	-610.23	466.8	127.38	-730.22	123.84	21.883	-581.1	681.08	-420.1	-725.96	208.99	85.743	-648.37	272.85	50.444	-552.68	717.49	-367.98	-479.64	473.14	-188.25	-364.98	705.97	274.31	-595.06	1254.9	-33.444	-691.73	198.43	35.988	-517.11	945.66	273.23	-473.9	818.67	142.58	-682.44	1056	-17.095	-548.14	1342.9	-97.216	-430.56	397.01	-150	-396.42	755.01	224.76	-557.95	1336.2	35.435	-403	1062.3	-26.959	-728.69	841.24	25.461	-361.87	229.63	-81.21	-195.96	92.891	-87.827	-379.39	315.79	-84.616	-522.16	634.1	-240.09	-614.73	896.98	-243.02	-596.29	926.48	-311.48	-345.47	83.603	-34.565	-589.15	547.7	157.27	-733.53	832.58	-78.185	-397.95	34.205	-63.808	-729.88	19.56	73.892	-338.84	149.63	-79.457	-273.76	46.493	-133.56	-236.35	78.276	-58.695	-660.51	387.42	103.59	-365.08	61.755	-111.4	-699.75	28.831	-16.02	-644.24	28.066	23.086	-860.46	74.785	4.9025	-781.97	90.097	-30.337	-799.64	80.972	52.934
277	1.385	-420.73	1403	26.615	-520.75	1204.9	143.54	-506.45	1067.8	229.62	-566.09	904.54	206.78	-429.36	842.29	268.77	-420.92	742.39	289.43	-534.25	1194.5	-221.47	-544.58	1034.3	-297.36	-559.72	833.04	-365.76	-599.14	733	-400.13	-559.1	625.51	179.61	-446.15	576.38	-191.9	-412.55	1414.3	-68.947	-378.35	222.88	-138.41	-636.67	1134.8	86.696	-527.46	536.21	137.65	-493.77	552.48	-219.61	-475.09	797.8	-190.22	-447	1168	-35.052	-604.6	466.46	127.7	-728.47	124.65	22.144	-575.13	679.88	-420.62	-723	209.62	86.138	-644.51	272.4	50.905	-546.46	716.33	-368.59	-473.28	472.84	-187.8	-360.36	705.63	274.23	-589.71	1254.3	-34.573	-688.93	198.62	36.339	-512.35	945.38	272.67	-468.32	818.72	142.79	-676.8	1055.3	-18.107	-542.72	1342.4	-98.056	-424.44	396.69	-149.65	-391.66	754.62	224.54	-552.65	1335.7	34.566	-397.37	1062	-27.353	-722.78	840.62	25.04	-357.09	228.56	-80.487	-191.97	88.476	-86.566	-373.97	314.81	-84.022	-516.12	633.68	-239.82	-608.21	895.79	-243.56	-589.85	925.28	-312	-342.18	82.382	-33.831	-583.34	547.41	157.53	-727.34	831.95	-78.573	-395.24	34.354	-63.361	-729.75	19.874	73.886	-334.68	148.45	-78.598	-270.9	44.088	-132.71	-233.11	75.111	-57.545	-655.3	387.21	104.09	-361.82	61.021	-110.74	-699.59	28.96	-15.983	-644.26	28.033	22.984	-859.33	77.649	5.1248	-780.74	91.708	-30.036	-798.51	82.725	53.185
278	1.39	-415.49	1402.6	25.902	-515.73	1204.5	142.68	-501.58	1067.5	228.9	-561.36	904.26	206.2	-424.77	841.97	268.37	-416.46	742.07	289.19	-528.49	1193.6	-222.47	-538.43	1033.2	-298.09	-553.25	831.9	-366.28	-592.78	731.88	-400.62	-553.02	625.22	179.69	-439.8	576.25	-191.79	-407.2	1414	-69.655	-373.58	222.02	-137.84	-631.44	1134.3	85.558	-521.51	535.79	137.86	-487.5	552.27	-219.24	-468.84	796.86	-190.27	-441.45	1167.6	-35.803	-598.72	466.09	128.07	-726.56	125.53	22.437	-568.95	678.65	-421.06	-719.83	210.28	86.581	-640.41	271.92	51.43	-540.07	715.16	-369.12	-466.85	472.68	-187.38	-355.87	705.28	274.16	-584.31	1253.8	-35.732	-685.94	198.82	36.735	-507.64	945.14	272.09	-462.71	818.81	142.93	-671.14	1054.7	-19.131	-537.27	1341.9	-98.915	-418.27	396.48	-149.37	-387.01	754.22	224.32	-547.34	1335.2	33.679	-391.73	1061.6	-27.812	-716.84	839.98	24.671	-352.48	227.51	-79.838	-188.32	83.725	-85.368	-368.6	313.86	-83.509	-509.95	633.43	-239.57	-601.64	894.61	-244.11	-583.35	924.08	-312.52	-339.24	81.179	-33.171	-577.35	547.1	157.81	-721.16	831.36	-78.931	-392.96	34.623	-62.98	-729.61	20.243	73.873	-330.79	147.27	-77.814	-268.48	41.552	-131.96	-230.25	71.73	-56.465	-649.79	386.94	104.67	-358.95	60.327	-110.16	-699.43	29.098	-15.95	-644.29	28.001	22.841	-858.01	80.726	5.3518	-779.35	93.429	-29.678	-797.25	84.608	53.454
279	1.395	-410.24	1402.4	25.175	-510.67	1204.2	141.81	-496.75	1067.2	228.16	-556.67	904.04	205.57	-420.25	841.67	267.97	-412.12	741.76	288.95	-522.69	1192.7	-223.5	-532.24	1032.2	-298.83	-546.66	830.75	-366.76	-586.25	730.72	-401.06	-546.83	624.96	179.77	-433.37	576.27	-191.68	-401.86	1413.8	-70.375	-368.96	221.23	-137.37	-626.2	1133.8	84.405	-515.37	535.42	138.08	-481.15	552.22	-218.89	-462.57	796.01	-190.32	-435.89	1167.3	-36.582	-592.59	465.69	128.49	-724.46	126.49	22.764	-562.55	677.4	-421.42	-716.44	210.98	87.07	-636.05	271.4	52.024	-533.52	713.99	-369.58	-460.36	472.67	-187.01	-351.51	704.93	274.11	-578.87	1253.3	-36.916	-682.73	199.04	37.175	-502.99	944.94	271.47	-457.05	818.93	142.99	-665.47	1054.2	-20.161	-531.81	1341.6	-99.791	-412.06	396.39	-149.17	-382.46	753.82	224.11	-542	1334.7	32.774	-386.07	1061.3	-28.333	-710.87	839.31	24.356	-348.02	226.51	-79.285	-185.01	78.754	-84.252	-363.29	312.97	-83.091	-503.67	633.37	-239.33	-595.02	893.45	-244.67	-576.78	922.9	-313.05	-336.59	80.023	-32.603	-571.19	546.78	158.09	-714.99	830.79	-79.255	-391.03	35.001	-62.674	-729.44	20.675	73.845	-327.14	146.11	-77.132	-266.45	38.952	-131.34	-227.71	68.218	-55.475	-643.97	386.62	105.32	-356.4	59.689	-109.66	-699.24	29.244	-15.924	-644.35	27.967	22.662	-856.46	84.034	5.572	-777.78	95.27	-29.27	-795.83	86.635	53.734
280	1.4	-404.98	1402.2	24.434	-505.57	1204	140.92	-491.97	1067	227.4	-552.02	903.88	204.88	-415.83	841.38	267.56	-407.91	741.47	288.71	-516.86	1191.8	-224.55	-526	1031.1	-299.57	-539.95	829.6	-367.21	-579.54	729.54	-401.44	-540.54	624.73	179.86	-426.88	576.45	-191.59	-396.5	1413.7	-71.106	-364.47	220.51	-137.02	-620.94	1133.5	83.242	-509.04	535.12	138.33	-474.74	552.35	-218.57	-456.28	795.26	-190.36	-430.31	1167	-37.388	-586.2	465.28	128.96	-722.14	127.52	23.127	-555.93	676.14	-421.69	-712.79	211.72	87.606	-631.41	270.87	52.692	-526.81	712.83	-369.95	-453.84	472.82	-186.71	-347.28	704.58	274.08	-573.38	1253	-38.121	-679.28	199.3	37.662	-498.4	944.78	270.82	-451.35	819.08	142.96	-659.8	1053.8	-21.192	-526.32	1341.3	-100.68	-405.83	396.44	-149.06	-378.04	753.41	223.9	-536.64	1334.3	31.855	-380.4	1061.1	-28.916	-704.88	838.63	24.1	-343.7	225.57	-78.843	-182.02	73.68	-83.228	-358.04	312.15	-82.786	-497.27	633.49	-239.13	-588.36	892.33	-245.23	-570.15	921.74	-313.58	-334.19	78.94	-32.135	-564.85	546.46	158.39	-708.85	830.27	-79.544	-389.4	35.472	-62.45	-729.23	21.178	73.8	-323.71	144.99	-76.569	-264.76	36.355	-130.86	-225.47	64.663	-54.589	-637.83	386.24	106.05	-354.13	59.114	-109.26	-699.02	29.403	-15.905	-644.43	27.931	22.454	-854.66	87.588	5.7734	-775.99	97.242	-28.822	-794.22	88.817	54.019
281	1.405	-399.71	1402.2	23.682	-500.42	1203.8	140.01	-487.23	1066.8	226.63	-547.4	903.8	204.12	-411.48	841.12	267.15	-403.84	741.2	288.46	-511	1191.1	-225.62	-519.71	1030.1	-300.31	-533.12	828.47	-367.6	-572.65	728.35	-401.76	-534.13	624.54	179.95	-420.35	576.77	-191.51	-391.13	1413.7	-71.847	-360.1	219.88	-136.79	-615.65	1133.2	82.079	-502.51	534.89	138.6	-468.27	552.65	-218.3	-449.98	794.63	-190.39	-424.71	1166.8	-38.216	-579.53	464.86	129.49	-719.58	128.65	23.531	-549.09	674.9	-421.87	-708.89	212.53	88.187	-626.47	270.32	53.441	-519.92	711.69	-370.23	-447.31	473.12	-186.5	-343.18	704.23	274.06	-567.83	1252.7	-39.342	-675.57	199.59	38.201	-493.85	944.69	270.13	-445.61	819.25	142.83	-654.13	1053.5	-22.216	-520.8	1341	-101.59	-399.58	396.61	-149.03	-373.73	753.01	223.69	-531.25	1334	30.923	-374.71	1060.9	-29.558	-698.87	837.93	23.905	-339.5	224.7	-78.525	-179.32	68.614	-82.303	-352.84	311.4	-82.603	-490.78	633.8	-238.97	-581.64	891.25	-245.79	-563.45	920.62	-314.11	-332.02	77.946	-31.769	-558.33	546.15	158.7	-702.74	829.78	-79.796	-388.02	36.015	-62.308	-729	21.761	73.733	-320.48	143.93	-76.138	-263.36	33.822	-130.53	-223.5	61.142	-53.814	-631.33	385.82	106.85	-352.11	58.604	-108.96	-698.76	29.576	-15.892	-644.53	27.891	22.226	-852.55	91.399	5.9449	-773.93	99.352	-28.344	-792.41	91.164	54.304
282	1.41	-394.42	1402.2	22.92	-495.22	1203.7	139.09	-482.53	1066.8	225.83	-542.8	903.81	203.3	-407.21	840.89	266.72	-399.89	740.95	288.2	-505.09	1190.4	-226.7	-513.37	1029.2	-301.03	-526.17	827.38	-367.94	-565.59	727.17	-402.01	-527.61	624.4	180.06	-413.8	577.24	-191.45	-385.75	1413.8	-72.596	-355.85	219.32	-136.7	-610.34	1133.1	80.922	-495.79	534.74	138.89	-461.78	553.12	-218.08	-443.67	794.13	-190.41	-419.09	1166.6	-39.062	-572.59	464.42	130.09	-716.75	129.87	23.979	-542.02	673.67	-421.96	-704.69	213.4	88.815	-621.21	269.76	54.28	-512.87	710.59	-370.42	-440.78	473.57	-186.39	-339.22	703.89	274.05	-562.22	1252.6	-40.572	-671.57	199.93	38.798	-489.36	944.66	269.4	-439.83	819.44	142.59	-648.47	1053.3	-23.227	-515.26	1340.9	-102.51	-393.34	396.89	-149.1	-369.53	752.62	223.48	-525.84	1333.8	29.979	-369.01	1060.8	-30.258	-692.86	837.21	23.774	-335.43	223.9	-78.335	-176.9	63.659	-81.475	-347.71	310.72	-82.546	-484.2	634.29	-238.87	-574.87	890.24	-246.33	-556.69	919.54	-314.62	-330.05	77.053	-31.499	-551.62	545.84	159.03	-696.66	829.35	-80.009	-386.85	36.605	-62.24	-728.72	22.431	73.644	-317.44	142.93	-75.842	-262.22	31.408	-130.35	-221.78	57.725	-53.149	-624.48	385.36	107.74	-350.31	58.156	-108.74	-698.44	29.769	-15.885	-644.67	27.847	21.991	-850.11	95.475	6.0781	-771.57	101.6	-27.841	-790.36	93.683	54.583
